<svg xmlns="http://www.w3.org/2000/svg" width="32" height="32.002" viewBox="0 0 32 32.002">
  <path id="_24-hours" data-name="24-hours" d="M36.872,36.04a.967.967,0,0,1-.967.967H32.35a.967.967,0,0,1-.967-.967V32.483a.967.967,0,0,1,1.934,0V33.7l.126-.124a14.037,14.037,0,1,0-5.348,3.349.967.967,0,1,1,.63,1.828,16,16,0,1,1,6.087-3.811l-.131.129h1.225A.967.967,0,0,1,36.872,36.04Zm-12.4-2.029V31.189a.967.967,0,1,0-1.934,0v2.822a10.431,10.431,0,0,1-9.4-9.4h2.821a.967.967,0,1,0,0-1.934H13.141a10.431,10.431,0,0,1,9.4-9.4V16.1a.967.967,0,1,0,1.934,0V13.273a10.431,10.431,0,0,1,9.4,9.4H31.055a.967.967,0,0,0,0,1.934h2.823A10.431,10.431,0,0,1,24.476,34.011Zm.709-8.284a.967.967,0,1,0,.967-1.674l-1.676-.969V19.327a.967.967,0,0,0-1.934,0v4.315a.967.967,0,0,0,.483.837Z" transform="translate(-7.493 -7.636)" fill="#ff4100"/>
</svg>
