<svg xmlns="http://www.w3.org/2000/svg" width="16.397" height="16.354" viewBox="0 0 16.397 16.354">
    <g id="phone" transform="translate(0 -33.962)">
      <path id="Path_54486" data-name="Path 54486" d="M16.4,111.847v2.575a1.927,1.927,0,0,1-1.923,1.932A14.511,14.511,0,0,1,4.455,111.92a14.419,14.419,0,0,1-4.455-10A1.926,1.926,0,0,1,1.932,100H4.507a.643.643,0,0,1,.61.44l1.288,3.854a.644.644,0,0,1-.075.561l-1.092,1.638a10.089,10.089,0,0,0,1.992,2.652,10.482,10.482,0,0,0,2.673,1.97l1.638-1.092a.645.645,0,0,1,.561-.075l3.863,1.288a.635.635,0,0,1,.431.61Z" transform="translate(0 -66.038)" fill="#ff641a"/>
      <path id="Path_54487" data-name="Path 54487" d="M115.741,315.762v2.575a1.927,1.927,0,0,1-1.923,1.932,14.511,14.511,0,0,1-10.019-4.434l2.775-2.775a10.482,10.482,0,0,0,2.673,1.97l1.638-1.092a.645.645,0,0,1,.561-.075l3.863,1.288A.635.635,0,0,1,115.741,315.762Z" transform="translate(-99.345 -269.953)" fill="#f03800"/>
    </g>
  </svg>
  