<svg id="Layer_2" data-name="Layer 2" xmlns="http://www.w3.org/2000/svg" width="68.858" height="38.733" viewBox="0 0 68.858 38.733">
  <path id="Path_60" data-name="Path 60" d="M60.767,30.031l-3.7-.617a3.217,3.217,0,0,1-2.271-1.583L49.676,18.88A9.7,9.7,0,0,0,41.269,14H23.286a9.7,9.7,0,0,0-8.407,4.879L9.661,28.01a3.245,3.245,0,0,1-2.022,1.53l-3.566.891a5.363,5.363,0,0,0-3.81,3.581c-.012.028-.013.061-.023.09A5.358,5.358,0,0,0,0,35.651v7.4a5.386,5.386,0,0,0,5.38,5.38H9.344a7.515,7.515,0,0,0,13.589,0H45.925a7.515,7.515,0,0,0,13.589,0h3.965a5.386,5.386,0,0,0,5.38-5.38V39.582a9.654,9.654,0,0,0-8.091-9.551Zm4.749,5.487a7.506,7.506,0,0,1,.944,2.152h-.83a3.238,3.238,0,0,1-2.279-.938,3.289,3.289,0,0,1-.764-1.214Zm-63.354,0H4L3.463,37.67H2.152V35.651C2.152,35.605,2.162,35.562,2.163,35.518ZM16.139,50.581a5.38,5.38,0,1,1,5.38-5.38,5.38,5.38,0,0,1-5.38,5.38Zm36.581,0A5.38,5.38,0,1,1,58.1,45.2a5.38,5.38,0,0,1-5.38,5.38Zm10.759-4.3H60.165a7.531,7.531,0,1,0-14.891,0H23.584a7.531,7.531,0,1,0-14.891,0H5.38A3.228,3.228,0,0,1,2.152,43.05V39.822H4.3a1.076,1.076,0,0,0,1.044-.814l1.076-4.3A1.076,1.076,0,0,0,5.38,33.366H3.108A3.209,3.209,0,0,1,4.6,32.52l3.567-.892a5.407,5.407,0,0,0,3.365-2.55l5.218-9.131a7.549,7.549,0,0,1,6.539-3.795H41.269a7.549,7.549,0,0,1,6.539,3.795L52.923,28.9a5.358,5.358,0,0,0,3.786,2.639l3.7.618a7.545,7.545,0,0,1,3.021,1.211H61.327a1.076,1.076,0,0,0-1.076,1.076,5.374,5.374,0,0,0,5.38,5.38h1.076V43.05a3.228,3.228,0,0,1-3.228,3.228Z" transform="translate(0 -14)" fill="#ff4100"/>
  <path id="Path_61" data-name="Path 61" d="M46.556,23.977a1.076,1.076,0,1,0-1.845,1.108l1.6,2.674H33.152V19.152h6.17a3.244,3.244,0,0,1,2.768,1.568l.682,1.138a1.076,1.076,0,1,0,1.845-1.108l-.683-1.138A5.4,5.4,0,0,0,39.322,17H32.076A1.076,1.076,0,0,0,31,18.076V28.835a1.076,1.076,0,0,0,1.076,1.076H48.215a1.076,1.076,0,0,0,.922-1.63Z" transform="translate(2.353 -13.772)" fill="#ff4100"/>
  <path id="Path_62" data-name="Path 62" d="M29.215,17H21.968a5.4,5.4,0,0,0-4.612,2.611l-5.2,8.67a1.076,1.076,0,0,0,.922,1.63H29.215a1.076,1.076,0,0,0,1.076-1.076V18.076A1.076,1.076,0,0,0,29.215,17ZM28.139,27.759H14.976l4.224-7.04a3.244,3.244,0,0,1,2.768-1.568h6.17Z" transform="translate(0.911 -13.772)" fill="#ff4100"/>
  <path id="Path_63" data-name="Path 63" d="M34.228,30H32.076a1.076,1.076,0,0,0,0,2.152h2.152a1.076,1.076,0,1,0,0-2.152Z" transform="translate(2.353 -12.785)" fill="#ff4100"/>
  <path id="Path_64" data-name="Path 64" d="M15.228,30H13.076a1.076,1.076,0,1,0,0,2.152h2.152a1.076,1.076,0,0,0,0-2.152Z" transform="translate(0.911 -12.785)" fill="#ff4100"/>
  <path id="Path_65" data-name="Path 65" d="M49.228,40a3.228,3.228,0,1,0,3.228,3.228A3.228,3.228,0,0,0,49.228,40Zm0,4.3A1.076,1.076,0,1,1,50.3,43.228,1.076,1.076,0,0,1,49.228,44.3Z" transform="translate(3.492 -12.026)" fill="#ff4100"/>
  <path id="Path_66" data-name="Path 66" d="M15.228,40a3.228,3.228,0,1,0,3.228,3.228A3.228,3.228,0,0,0,15.228,40Zm0,4.3A1.076,1.076,0,1,1,16.3,43.228,1.076,1.076,0,0,1,15.228,44.3Z" transform="translate(0.911 -12.026)" fill="#ff4100"/>
</svg>
