<svg xmlns="http://www.w3.org/2000/svg" width="39.533" height="39.494" viewBox="0 0 39.533 39.494">
  <path id="target" d="M43.495,10.832a.941.941,0,0,0-.7-.654l-4.268-.92L37.6,4.99a.941.941,0,0,0-1.586-.467L30.5,10.042a17.934,17.934,0,1,0,7.229,7.252l5.531-5.531a.941.941,0,0,0,.237-.932ZM25.843,25.805a3.909,3.909,0,1,1-1.888-3.343l-2.683,2.677a.941.941,0,1,0,1.33,1.333l2.683-2.677a3.882,3.882,0,0,1,.559,2.011Zm-.531-4.7a5.8,5.8,0,1,0,1.33,1.333l2.99-2.983a9.994,9.994,0,1,1-1.33-1.332ZM21.937,41.859a16.054,16.054,0,1,1,7.55-30.225c0,.008,0,.017,0,.025L30.426,16l-.788.787a11.88,11.88,0,1,0,1.33,1.333l.777-.775,4.376.943h0A16.057,16.057,0,0,1,21.937,41.859Zm14.08-25.517-2.684-.579,2.24-2.235a.941.941,0,1,0-1.33-1.333l-2.231,2.226-.573-2.658,4.688-4.688.684,3.172a.941.941,0,0,0,.722.722l3.172.684Z" transform="translate(-4 -4.247)" fill="#ff4100"/>
</svg>
