<svg xmlns="http://www.w3.org/2000/svg" width="32" height="30.159" viewBox="0 0 32 30.159">
  <path id="support" d="M19.229,42.885a2,2,0,0,0-2-2H14.774a2,2,0,1,0,0,4.005h2.452A2,2,0,0,0,19.229,42.885ZM4.21,37.721a8.672,8.672,0,0,0,1.146.016,5.685,5.685,0,0,0,5.577,4.585H11.7a3.143,3.143,0,0,0,0,1.125h-.764A6.81,6.81,0,0,1,4.21,37.721Zm-.572-1.2A4.363,4.363,0,0,1,0,32.222V29.563A4.363,4.363,0,0,1,4.363,25.2h.29a11.383,11.383,0,0,1,22.693,0h.29A4.363,4.363,0,0,1,32,29.563v2.659a4.363,4.363,0,0,1-4.363,4.363H26.349a.967.967,0,0,1-.967-.967V26.111a9.382,9.382,0,1,0-18.765,0v9.507a.967.967,0,0,1-.531.863,5.9,5.9,0,0,1-2.449.043Z" transform="translate(0 -14.729)" fill="#ff4100" fill-rule="evenodd"/>
</svg>
