<svg xmlns="http://www.w3.org/2000/svg" width="31.791" height="31.791" viewBox="0 0 31.791 31.791">
  <path id="Path_121" data-name="Path 121" d="M34.954,29.694a15.821,15.821,0,0,0,2.337-8.3h0a15.821,15.821,0,0,0-2.337-8.3l-.009-.014a15.9,15.9,0,0,0-27.1,0l-.009.014a15.9,15.9,0,0,0,0,16.6l.009.014a15.9,15.9,0,0,0,27.1,0ZM23.427,34.567a3.863,3.863,0,0,1-1.032.713,2.329,2.329,0,0,1-2,0,4.866,4.866,0,0,1-1.8-1.587,14.208,14.208,0,0,1-2.053-4.455q2.426-.149,4.856-.152t4.856.152a17.931,17.931,0,0,1-.871,2.4,9.217,9.217,0,0,1-1.954,2.931ZM7.317,22.288h6.411a31.543,31.543,0,0,0,.58,5.327q-2.629.231-5.244.635a14.013,14.013,0,0,1-1.747-5.963ZM9.064,14.54q2.614.405,5.246.636a31.488,31.488,0,0,0-.581,5.327H7.317A14.013,14.013,0,0,1,9.064,14.54Zm10.3-6.315A3.862,3.862,0,0,1,20.4,7.511a2.329,2.329,0,0,1,2,0A4.866,4.866,0,0,1,24.2,9.1a14.207,14.207,0,0,1,2.053,4.455q-2.426.149-4.856.152t-4.856-.152a17.928,17.928,0,0,1,.871-2.4,9.217,9.217,0,0,1,1.954-2.931ZM35.474,20.5H29.062a31.545,31.545,0,0,0-.58-5.327q2.629-.231,5.244-.635A14.013,14.013,0,0,1,35.474,20.5ZM16.1,27.477a29.539,29.539,0,0,1-.589-5.189H27.276a29.533,29.533,0,0,1-.588,5.189Q24.045,27.3,21.4,27.3T16.1,27.477ZM26.687,15.314a29.541,29.541,0,0,1,.589,5.189H15.515a29.533,29.533,0,0,1,.588-5.189q2.643.173,5.292.177T26.687,15.314Zm2.375,6.975h6.412a14.013,14.013,0,0,1-1.747,5.963q-2.614-.405-5.246-.636a31.486,31.486,0,0,0,.581-5.327ZM32.656,12.9q-2.286.33-4.586.522a20.367,20.367,0,0,0-1.063-3A12.674,12.674,0,0,0,25.529,7.9,14.106,14.106,0,0,1,32.656,12.9ZM11.419,11.419A14.1,14.1,0,0,1,17.261,7.9c-.033.043-.068.085-.1.129a16.3,16.3,0,0,0-2.437,5.387q-2.3-.195-4.589-.523a14.226,14.226,0,0,1,1.284-1.477ZM10.135,29.9q2.286-.33,4.586-.522a20.367,20.367,0,0,0,1.063,3,12.675,12.675,0,0,0,1.479,2.517A14.106,14.106,0,0,1,10.135,29.9Zm21.238,1.477a14.1,14.1,0,0,1-5.842,3.516c.033-.043.068-.085.1-.129a16.3,16.3,0,0,0,2.437-5.387q2.3.195,4.589.523a14.226,14.226,0,0,1-1.284,1.477Z" transform="translate(-5.5 -5.5)" fill="#ff4100"/>
</svg>
