<svg xmlns="http://www.w3.org/2000/svg" width="248.37" height="147.551" viewBox="0 0 248.37 147.551">
  <path id="Path_140" data-name="Path 140" d="M104.1,110c-1.547.409-2.622.426-3.233.062s-.919-1.162-.919-2.382v-5.129q2.81-.972,5.008-1.526a44.5,44.5,0,0,1,5.129-.916V89.974a42.539,42.539,0,0,0-11.358,2.5,16.312,16.312,0,0,0-7.567,5.615q-2.689,3.73-2.687,10.074a23.921,23.921,0,0,0,.184,3.173,20.961,20.961,0,0,0,.547,2.688l-4.394,1.221v8.792l28.816-7.692v-8.913Z" transform="translate(-49.765 -52.797)" fill="#fff"/>
  <path id="Path_141" data-name="Path 141" d="M109.154,152.01v21.977h-87.3q-7.449,0-12.333-2.868a16.934,16.934,0,0,1-7.2-8.913Q0,156.161,0,146.76a78.642,78.642,0,0,1,.975-12.454,79.59,79.59,0,0,1,2.93-12.086l18.8,2.927a52.469,52.469,0,0,0-2.379,7.939,37.265,37.265,0,0,0-.794,7.692A46.813,46.813,0,0,0,19.9,147a23.9,23.9,0,0,0,1.221,5.008H78.628V97.066H98.163V152.01Z" transform="translate(0 -56.959)" fill="#fff"/>
  <path id="Path_142" data-name="Path 142" d="M260.19,231.523a7.625,7.625,0,0,1-4.4-1.831,20.558,20.558,0,0,1-4.273-4.334,7.8,7.8,0,0,1-1.831-4.334,7.521,7.521,0,0,1,1.77-4.334,19.38,19.38,0,0,1,4.212-4.151,7.764,7.764,0,0,1,4.4-1.771,7.622,7.622,0,0,1,4.456,1.771,20.048,20.048,0,0,1,4.151,4.151,7.63,7.63,0,0,1,1.771,4.456,7.54,7.54,0,0,1-1.832,4.274,22.087,22.087,0,0,1-4.212,4.273,7.281,7.281,0,0,1-4.213,1.831m-9.4-29.791V179.755H269.1V144.347h19.535v57.385Zm32.722,29.791a7.625,7.625,0,0,1-4.4-1.831,20.558,20.558,0,0,1-4.273-4.334,7.8,7.8,0,0,1-1.832-4.334,7.508,7.508,0,0,1,1.771-4.334,19.333,19.333,0,0,1,4.212-4.151,7.764,7.764,0,0,1,4.4-1.771,7.622,7.622,0,0,1,4.456,1.771A20.07,20.07,0,0,1,292,216.689a7.632,7.632,0,0,1,1.77,4.456,7.544,7.544,0,0,1-1.831,4.274,22.113,22.113,0,0,1-4.212,4.273,7.282,7.282,0,0,1-4.213,1.831" transform="translate(-146.52 -84.704)" fill="#fff"/>
  <path id="Path_143" data-name="Path 143" d="M474.185,78.149a19.4,19.4,0,0,1-.515,8.865c-2.556,9.074-8.324,17.929-16.377,23a42.728,42.728,0,0,1-12.638,5.372,57.654,57.654,0,0,1-13.8,1.647H385.32V0h19.536V95.051H432.2a34.781,34.781,0,0,0,10.074-1.283,20.6,20.6,0,0,0,7.019-3.541,19.884,19.884,0,0,0,4.641-5.31c.2-.329.392-.666.572-1.009a16.792,16.792,0,0,0-5.272-2.778,33.606,33.606,0,0,0-10.317-1.342q-3.423,0-7.449.184t-8.545.794l-2.931-21.613q5.129-.609,9.707-.974t8.729-.368a61.136,61.136,0,0,1,16.91,2.015,28.951,28.951,0,0,1,11.538,6.226c3.877,3.517,6.468,7.547,7.306,12.1" transform="translate(-226.109)" fill="#fff"/>
  <path id="Path_144" data-name="Path 144" d="M532.545,312.789a19.971,19.971,0,0,0-4.151-4.151,7.607,7.607,0,0,0-4.456-1.772,7.757,7.757,0,0,0-4.394,1.772,19.291,19.291,0,0,0-4.214,4.151,7.516,7.516,0,0,0-1.769,4.335,7.8,7.8,0,0,0,1.831,4.335,20.558,20.558,0,0,0,4.272,4.332,7.625,7.625,0,0,0,4.394,1.831,7.279,7.279,0,0,0,4.213-1.831,22.044,22.044,0,0,0,4.214-4.272,7.539,7.539,0,0,0,1.831-4.273,7.638,7.638,0,0,0-1.772-4.456" transform="translate(-301.361 -180.071)" fill="#fff"/>
  <rect id="Rectangle_62" data-name="Rectangle 62" width="175.353" height="19.535" fill="#fff"/>
</svg>
