<svg xmlns="http://www.w3.org/2000/svg" width="20.148" height="24.6" viewBox="0 0 20.148 24.6">
    <g id="Group_121071" data-name="Group 121071" transform="translate(-1.979 0.247)">
      <g id="g2233" transform="translate(2.579 17.683)">
        <path id="path2235" d="M0,0V5.039A1.032,1.032,0,0,0,1.032,6.07H14.614a1.032,1.032,0,0,0,1.032-1.032V4.832" fill="none" stroke="#ff4100" stroke-linecap="round" stroke-linejoin="round" stroke-miterlimit="10" stroke-width="1.2"/>
      </g>
      <g id="Group_121070" data-name="Group 121070">
        <path id="path2215" d="M0,0H9.424" transform="translate(8.992 7.992)" fill="none" stroke="#ff4100" stroke-linecap="round" stroke-linejoin="round" stroke-miterlimit="10" stroke-width="1.2"/>
        <g id="g2217" transform="translate(8.992 10.609)">
          <path id="path2219" d="M0,0H9.424" fill="none" stroke="#ff4100" stroke-linecap="round" stroke-linejoin="round" stroke-miterlimit="10" stroke-width="1.2"/>
        </g>
        <g id="g2221" transform="translate(8.992 13.226)">
          <path id="path2223" d="M0,0H9.424" fill="none" stroke="#ff4100" stroke-linecap="round" stroke-linejoin="round" stroke-miterlimit="10" stroke-width="1.2"/>
        </g>
        <g id="g2229" transform="translate(4.23 2.004)">
          <path id="path2231" d="M-45.1,0h-.619a1.032,1.032,0,0,0-1.032,1.032V19.48a1.032,1.032,0,0,0,1.032,1.032h8.983" transform="translate(46.749)" fill="none" stroke="#ff4100" stroke-linecap="round" stroke-linejoin="round" stroke-miterlimit="10" stroke-width="1.2"/>
        </g>
        <g id="g2237" transform="translate(2.579 3.242)">
          <path id="path2239" d="M-45.1,0h-.619a1.032,1.032,0,0,0-1.032,1.032V12.9" transform="translate(46.749)" fill="none" stroke="#ff4100" stroke-linecap="round" stroke-linejoin="round" stroke-miterlimit="10" stroke-width="1.2"/>
        </g>
        <g id="g2241" transform="translate(5.881 0.353)">
          <path id="path2243" d="M0-107.292v-2.9a1.032,1.032,0,0,1,1.032-1.032H11.466l4.18,4.18v15.3a1.032,1.032,0,0,1-1.032,1.032H1.032A1.032,1.032,0,0,1,0-91.74v-14.013" transform="translate(0 111.22)" fill="none" stroke="#ff4100" stroke-linecap="round" stroke-linejoin="round" stroke-miterlimit="10" stroke-width="1.2"/>
        </g>
      </g>
    </g>
  </svg>
  