<svg xmlns="http://www.w3.org/2000/svg" width="24.754" height="29.67" viewBox="0 0 24.754 29.67">
  <g id="Group_121070" data-name="Group 121070" transform="translate(0 0)">
    <path id="Path_15" data-name="Path 15" d="M94.178,14.293A6.915,6.915,0,0,0,99.231,12.2a6.915,6.915,0,0,0,2.093-5.053,6.916,6.916,0,0,0-2.094-5.053,7.145,7.145,0,0,0-10.105,0,6.915,6.915,0,0,0-2.094,5.053A6.915,6.915,0,0,0,89.125,12.2a6.917,6.917,0,0,0,5.053,2.093ZM90.355,3.323a5.406,5.406,0,0,1,7.646,0,5.167,5.167,0,0,1,1.584,3.823A5.166,5.166,0,0,1,98,10.97a5.405,5.405,0,0,1-7.646,0A5.165,5.165,0,0,1,88.77,7.146a5.166,5.166,0,0,1,1.585-3.823Zm0,0" transform="translate(-81.988 0)" fill="#ff4100"/>
    <path id="Path_16" data-name="Path 16" d="M24.694,255.8a17.652,17.652,0,0,0-.24-1.875,14.769,14.769,0,0,0-.461-1.885,9.31,9.31,0,0,0-.775-1.758,6.626,6.626,0,0,0-1.168-1.523,5.152,5.152,0,0,0-1.679-1.055,5.8,5.8,0,0,0-2.143-.388,2.174,2.174,0,0,0-1.161.493c-.348.227-.755.49-1.21.78a6.935,6.935,0,0,1-1.566.69,6.08,6.08,0,0,1-3.83,0,6.912,6.912,0,0,1-1.564-.69c-.45-.288-.858-.55-1.211-.78a2.172,2.172,0,0,0-1.161-.493,5.793,5.793,0,0,0-2.143.388A5.147,5.147,0,0,0,2.7,248.759a6.627,6.627,0,0,0-1.168,1.522A9.328,9.328,0,0,0,.76,252.04,14.805,14.805,0,0,0,.3,253.925a17.531,17.531,0,0,0-.24,1.875C.02,256.367,0,256.956,0,257.552a4.927,4.927,0,0,0,1.463,3.727,5.267,5.267,0,0,0,3.771,1.375H19.52a5.267,5.267,0,0,0,3.77-1.375,4.925,4.925,0,0,0,1.463-3.728c0-.6-.02-1.187-.06-1.753Zm-2.6,4.22a3.546,3.546,0,0,1-2.572.9H5.234a3.547,3.547,0,0,1-2.572-.9,3.217,3.217,0,0,1-.923-2.468c0-.556.018-1.1.055-1.632a15.812,15.812,0,0,1,.217-1.688,13.06,13.06,0,0,1,.405-1.662,7.593,7.593,0,0,1,.631-1.429,4.913,4.913,0,0,1,.859-1.125,3.418,3.418,0,0,1,1.117-.694,4,4,0,0,1,1.369-.264c.061.032.169.094.345.209.357.233.769.5,1.225.79a8.615,8.615,0,0,0,1.965.878,7.817,7.817,0,0,0,4.9,0,8.627,8.627,0,0,0,1.966-.879c.466-.3.867-.556,1.224-.789.176-.114.284-.176.345-.209a4,4,0,0,1,1.37.264,3.423,3.423,0,0,1,1.116.694,4.9,4.9,0,0,1,.859,1.125,7.569,7.569,0,0,1,.631,1.429,13.029,13.029,0,0,1,.406,1.662,15.946,15.946,0,0,1,.217,1.689h0c.037.525.055,1.074.056,1.631a3.217,3.217,0,0,1-.924,2.468Zm0,0" transform="translate(0 -232.984)" fill="#ff4100"/>
  </g>
</svg>
