<svg xmlns="http://www.w3.org/2000/svg" width="32.299" height="38.713" viewBox="0 0 32.299 38.713">
    <g id="Group_121074" data-name="Group 121074" transform="translate(0 0)">
      <path id="Path_109" data-name="Path 109" d="M96.356,18.648a9.022,9.022,0,0,0,6.593-2.732,9.023,9.023,0,0,0,2.731-6.593,9.023,9.023,0,0,0-2.732-6.593,9.322,9.322,0,0,0-13.185,0,9.022,9.022,0,0,0-2.732,6.592,9.023,9.023,0,0,0,2.732,6.593A9.025,9.025,0,0,0,96.356,18.648ZM91.368,4.336a7.053,7.053,0,0,1,9.977,0,6.741,6.741,0,0,1,2.067,4.988,6.741,6.741,0,0,1-2.067,4.989,7.053,7.053,0,0,1-9.977,0A6.74,6.74,0,0,1,89.3,9.324a6.74,6.74,0,0,1,2.067-4.988Zm0,0" transform="translate(-80.451)" fill="#191717"/>
      <path id="Path_110" data-name="Path 110" d="M32.22,258.385a23.03,23.03,0,0,0-.314-2.446,19.274,19.274,0,0,0-.6-2.459,12.149,12.149,0,0,0-1.011-2.294,8.647,8.647,0,0,0-1.524-1.987,6.722,6.722,0,0,0-2.19-1.376,7.569,7.569,0,0,0-2.8-.506,2.837,2.837,0,0,0-1.515.643c-.454.3-.986.639-1.579,1.018a9.046,9.046,0,0,1-2.043.9,7.932,7.932,0,0,1-5,0,9.018,9.018,0,0,1-2.041-.9c-.587-.375-1.119-.718-1.58-1.018a2.835,2.835,0,0,0-1.515-.643,7.559,7.559,0,0,0-2.8.507,6.716,6.716,0,0,0-2.19,1.376A8.648,8.648,0,0,0,2,251.185a12.171,12.171,0,0,0-1.011,2.294,19.32,19.32,0,0,0-.6,2.459,22.875,22.875,0,0,0-.314,2.447c-.051.739-.077,1.509-.077,2.286a6.428,6.428,0,0,0,1.909,4.863,6.872,6.872,0,0,0,4.92,1.794H25.469a6.873,6.873,0,0,0,4.919-1.794,6.426,6.426,0,0,0,1.909-4.864c0-.78-.027-1.549-.078-2.287Zm-3.4,5.507a4.627,4.627,0,0,1-3.356,1.169H6.829a4.627,4.627,0,0,1-3.356-1.169,4.2,4.2,0,0,1-1.2-3.22c0-.725.024-1.442.072-2.129a20.634,20.634,0,0,1,.284-2.2,17.037,17.037,0,0,1,.529-2.168,9.909,9.909,0,0,1,.823-1.865,6.41,6.41,0,0,1,1.12-1.468,4.459,4.459,0,0,1,1.457-.906,5.222,5.222,0,0,1,1.787-.345c.079.042.221.123.45.272.466.3,1,.651,1.6,1.03a11.239,11.239,0,0,0,2.564,1.146,10.2,10.2,0,0,0,6.392,0,11.253,11.253,0,0,0,2.565-1.147c.608-.389,1.131-.725,1.6-1.03.229-.149.371-.23.45-.272a5.224,5.224,0,0,1,1.787.345,4.466,4.466,0,0,1,1.457.906,6.393,6.393,0,0,1,1.12,1.469,9.876,9.876,0,0,1,.823,1.865,17,17,0,0,1,.529,2.168,20.805,20.805,0,0,1,.284,2.2h0c.048.685.072,1.4.073,2.128a4.2,4.2,0,0,1-1.205,3.22Zm0,0" transform="translate(0 -228.616)" fill="#191717"/>
    </g>
  </svg>
  