<svg xmlns="http://www.w3.org/2000/svg" width="26.801" height="27.652" viewBox="0 0 26.801 27.652">
  <path id="setting" d="M33.885,16.024l-1.15-.947a1.62,1.62,0,0,1,0-2.5l1.15-.947a2.154,2.154,0,0,0,.5-2.748L32.112,4.946A2.154,2.154,0,0,0,29.483,4l-1.4.523a1.62,1.62,0,0,1-2.167-1.251l-.245-1.47A2.154,2.154,0,0,0,23.545,0H19a2.153,2.153,0,0,0-2.131,1.805l-.245,1.47A1.62,1.62,0,0,1,14.46,4.526L13.065,4a2.154,2.154,0,0,0-2.629.943L8.164,8.88a2.154,2.154,0,0,0,.5,2.748l1.15.947a1.62,1.62,0,0,1,0,2.5l-1.15.947a2.154,2.154,0,0,0-.5,2.748l2.271,3.934a2.154,2.154,0,0,0,2.629.943l1.4-.523a1.62,1.62,0,0,1,2.167,1.251l.245,1.47A2.154,2.154,0,0,0,19,27.652h4.543a2.153,2.153,0,0,0,2.131-1.805l.245-1.47a1.62,1.62,0,0,1,2.167-1.251l1.4.523a2.154,2.154,0,0,0,2.629-.943l2.271-3.934a2.154,2.154,0,0,0-.5-2.748Zm-3.644,5.6-1.4-.523a3.781,3.781,0,0,0-5.055,2.919l-.245,1.47H19l-.245-1.47A3.781,3.781,0,0,0,13.7,21.1l-1.4.523-2.271-3.934,1.15-.947a3.781,3.781,0,0,0,0-5.837l-1.15-.947,2.271-3.934,1.4.523A3.781,3.781,0,0,0,18.757,3.63L19,2.16h4.543l.245,1.47a3.781,3.781,0,0,0,5.055,2.919l1.4-.523L32.513,9.96h0l-1.15.947a3.781,3.781,0,0,0,0,5.837l1.15.947ZM21.274,8.5A5.329,5.329,0,1,0,26.6,13.826,5.335,5.335,0,0,0,21.274,8.5Zm0,8.5a3.168,3.168,0,1,1,3.168-3.168A3.172,3.172,0,0,1,21.274,16.994Z" transform="translate(-7.873 0)" fill="#ff4100"/>
</svg>
