<svg xmlns="http://www.w3.org/2000/svg" width="27.642" height="26.49" viewBox="0 0 27.642 26.49">
    <path id="star" d="M6.187,26.982a1.471,1.471,0,0,1-1.432-1.8l1.778-7.833L.5,12.063a1.47,1.47,0,0,1,.833-2.571l7.98-.724,3.155-7.383a1.469,1.469,0,0,1,2.7,0l3.155,7.384,7.978.724a1.471,1.471,0,0,1,.835,2.571L21.11,17.351l1.778,7.833A1.469,1.469,0,0,1,20.7,26.771L13.822,22.66,6.941,26.774a1.472,1.472,0,0,1-.753.209Zm7.634-6.094a1.473,1.473,0,0,1,.753.208l6.494,3.884L19.39,17.587a1.469,1.469,0,0,1,.465-1.432l5.694-4.994-7.534-.684a1.467,1.467,0,0,1-1.221-.89L13.821,2.62,10.844,9.588a1.463,1.463,0,0,1-1.217.887l-7.535.684,5.694,4.994a1.466,1.466,0,0,1,.465,1.433L6.574,24.979,13.068,21.1a1.472,1.472,0,0,1,.753-.208ZM9.255,8.911a0,0,0,0,1,0,0Zm9.131,0v0S18.387,8.908,18.386,8.907Zm0,0" transform="translate(-0.001 -0.492)" fill="#ff4100"/>
  </svg>
  