<svg xmlns="http://www.w3.org/2000/svg" width="30.798" height="30.798" viewBox="0 0 30.798 30.798">
  <path id="Path_2654" data-name="Path 2654" d="M29.4,15.528V11.2a2.794,2.794,0,0,0-2.577-2.777L22.8,1.4A2.77,2.77,0,0,0,19,.377L5.223,8.4H2.8A2.8,2.8,0,0,0,0,11.2V28a2.8,2.8,0,0,0,2.8,2.8H26.6A2.8,2.8,0,0,0,29.4,28V23.67A2.1,2.1,0,0,0,30.8,21.7V17.5A2.1,2.1,0,0,0,29.4,15.528ZM25.2,8.4H19.1l4.576-2.664ZM22.977,4.521,16.314,8.4H13.551l8.735-5.086ZM19.708,1.587a1.354,1.354,0,0,1,1.04-.14,1.372,1.372,0,0,1,.841.65v0L10.769,8.4H8.005ZM28,28a1.4,1.4,0,0,1-1.4,1.4H2.8A1.4,1.4,0,0,1,1.4,28V11.2A1.4,1.4,0,0,1,2.8,9.8H26.6A1.4,1.4,0,0,1,28,11.2v4.2H23.8a4.2,4.2,0,1,0,0,8.4H28V28Zm1.4-6.3a.7.7,0,0,1-.7.7H23.8a2.8,2.8,0,0,1,0-5.6h4.9a.7.7,0,0,1,.7.7Z" transform="translate(-0.003 0)" fill="#ff4100"/>
</svg>
